<svg width="37" height="26" viewBox="0 0 37 26" fill="none" xmlns="http://www.w3.org/2000/svg">
<path d="M32.0781 0H4.07812C1.86812 0 0.078125 1.79 0.078125 4V22C0.078125 24.21 1.86812 26 4.07812 26H32.0781C34.2881 26 36.0781 24.21 36.0781 22V4C36.0781 1.79 34.2881 0 32.0781 0ZM7.36812 3.45C7.63812 3.13 8.04813 2.92 8.41813 2.92C8.43813 3.34 8.31812 3.71 8.04812 4.01C7.80813 4.33 7.37813 4.62 6.99813 4.57C6.90812 4.15 7.14813 3.72 7.36812 3.45ZM9.40812 9.15C9.11812 9.59 8.77812 10.08 8.28813 10.08C7.82812 10.08 7.64813 9.77 7.10813 9.77C6.53813 9.77 6.36812 10.08 5.92812 10.08C5.43812 10.08 5.11812 9.59 4.80813 9.15C4.40812 8.58 4.07812 7.65 4.06813 6.79C4.05813 6.33 4.15813 5.93 4.37813 5.55C4.68813 5.02 5.25812 4.63 5.86812 4.62C6.33812 4.6 6.75812 4.93 7.04812 4.93C7.31812 4.93 7.83812 4.63 8.40812 4.62C8.77812 4.61 9.29813 4.73 9.70813 5.36C9.67813 5.38 8.89812 5.78 8.89812 6.71C8.93812 7.77 9.87813 8.15 9.88813 8.15C9.88813 8.18 9.76812 8.64 9.40812 9.15Z" fill="#1D1D1F"/>
</svg>
