<svg width="37" height="44" viewBox="0 0 37 44" fill="none" xmlns="http://www.w3.org/2000/svg">
<path d="M14.9543 43.5004C14.8203 43.3433 14.6986 43.1761 14.5901 43.0004H5.09618C5.01668 43.0004 4.72058 43.0004 4.63618 43.0004C4.19178 43.0177 3.74696 42.9799 3.31188 42.8877C2.97664 42.8073 2.67147 42.6325 2.43248 42.384C2.19465 42.1291 2.03307 41.8126 1.96608 41.4704C1.88861 41.0207 1.85811 40.5642 1.87508 40.1082V9.29173C1.87508 9.19513 1.87508 8.97913 1.87508 8.87983C1.85447 8.40022 1.89157 7.91988 1.98558 7.44913C2.06903 7.08825 2.26209 6.76204 2.53828 6.51523C2.68092 6.38922 2.84301 6.28714 3.01828 6.21293C3.19201 6.14071 3.37393 6.09003 3.55998 6.06203C3.79555 6.0267 4.03328 6.00766 4.27148 6.00503C4.42948 6.00123 4.61338 6.00063 4.78948 6.00063H6.07238C6.12174 5.99838 6.17121 6.00092 6.22008 6.00823C6.26871 6.0144 6.314 6.03631 6.34902 6.07061C6.38405 6.10491 6.4069 6.14973 6.41408 6.19823C6.42518 6.25073 6.42408 6.56183 6.42568 6.60823C6.42575 6.71938 6.43427 6.83037 6.45118 6.94023C6.46981 7.04872 6.50703 7.15319 6.56118 7.24903C6.64812 7.40083 6.77353 7.52703 6.92478 7.61493C7.04267 7.68182 7.17282 7.7243 7.30748 7.73983C7.4432 7.75327 7.57967 7.75761 7.71598 7.75283H13.1406C13.3917 7.77928 13.6453 7.73809 13.8751 7.63353V5.00043H5.09668H4.81128C4.62038 5.00043 4.41928 5.00113 4.24718 5.00533C3.96349 5.00944 3.6804 5.03283 3.39988 5.07533C3.1341 5.11634 2.87431 5.18962 2.62628 5.29353C2.35198 5.40965 2.0983 5.56942 1.87508 5.76663C1.44962 6.14649 1.1501 6.64705 1.01648 7.20153C0.899428 7.75732 0.851931 8.32551 0.875078 8.89303V9.29173V40.1082C0.856826 40.6365 0.895212 41.1653 0.989578 41.6854C1.09565 42.2057 1.34439 42.6862 1.70798 43.0732C2.07555 43.4559 2.54383 43.7269 3.05878 43.8548C3.5749 43.9693 4.10341 44.0182 4.63178 44.0004C4.72448 44.0004 5.00058 44.0009 5.09668 44.0004H15.4551C15.3169 43.8878 15.1863 43.7661 15.0641 43.6363C15.0244 43.5934 14.9922 43.5447 14.9543 43.5004ZM7.57348 7.03673C7.49881 7.04214 7.4241 7.02675 7.35765 6.99225C7.2912 6.95776 7.23562 6.90551 7.19708 6.84133C7.16434 6.7811 7.1472 6.71363 7.1472 6.64508C7.1472 6.57653 7.16434 6.50906 7.19708 6.44883C7.23564 6.38472 7.29123 6.33256 7.35766 6.29816C7.42409 6.26375 7.49877 6.24844 7.57338 6.25393C7.67089 6.26303 7.76149 6.3082 7.82745 6.38059C7.8934 6.45299 7.92996 6.54739 7.92996 6.64533C7.92996 6.74326 7.8934 6.83767 7.82745 6.91007C7.76149 6.98246 7.67089 7.02763 7.57338 7.03673H7.57348ZM8.81148 5.37673H11.8985C11.9315 5.37683 11.9631 5.38994 11.9865 5.41321C12.0099 5.43649 12.0231 5.46804 12.0234 5.50103V5.50193V5.52043C12.0234 5.55365 12.0101 5.58551 11.9866 5.609C11.9632 5.63249 11.9313 5.6457 11.8981 5.64573H8.81148C8.77826 5.6457 8.74642 5.63249 8.72294 5.60899C8.69947 5.5855 8.68628 5.55364 8.68628 5.52043V5.50153V5.50053C8.68657 5.46751 8.69989 5.43595 8.72333 5.41271C8.74678 5.38947 8.77846 5.37643 8.81148 5.37643V5.37673ZM36.8751 4.39203C36.8954 3.7959 36.853 3.19929 36.7486 2.61203C36.6325 2.02747 36.358 1.48605 35.9551 1.04693C35.5516 0.616704 35.0335 0.310728 34.462 0.165028C33.8919 0.0360428 33.3076 -0.0190429 32.7235 0.00112856C32.6129 0.00066189 32.5017 0.000428559 32.3898 0.000428559H19.5411H19.2264C19.0151 0.000428559 18.7926 0.00122853 18.6022 0.00602853C18.2885 0.0104188 17.9756 0.0366487 17.6656 0.0845283C17.3715 0.130849 17.0843 0.213516 16.8106 0.330629C16.5067 0.462386 16.2264 0.642821 15.9806 0.864828C15.5086 1.29667 15.1778 1.8609 15.0317 2.48373C14.9022 3.11111 14.8496 3.75193 14.8751 4.39203V6.00063V39.6091C14.8548 40.2051 14.8971 40.8015 15.0015 41.3885C15.1176 41.9733 15.3923 42.515 15.7955 42.9542C15.8113 42.971 15.8294 42.9842 15.8455 43.0003C16.0294 43.1905 16.2376 43.3556 16.4647 43.4914C16.7222 43.6437 16.9995 43.7597 17.2888 43.8361C17.3819 43.8609 17.4777 43.8634 17.5717 43.8812C18.0522 43.9653 18.5395 44.0052 19.0273 44.0004C19.1965 44.001 19.3703 44.001 19.5411 44.0004H32.579C33.1747 44.0229 33.7711 43.9766 34.3562 43.8623C34.9439 43.7323 35.4816 43.4353 35.9047 43.0071C36.3264 42.5686 36.6161 42.0202 36.7405 41.4247C36.852 40.8263 36.8972 40.2174 36.8751 39.6091V4.84193C36.8751 4.69143 36.8751 4.53973 36.8751 4.39203ZM24.2163 0.512029C24.2163 0.47755 24.23 0.444485 24.2544 0.420105C24.2787 0.395725 24.3118 0.382028 24.3463 0.382028H27.4049C27.4394 0.382028 27.4724 0.395725 27.4968 0.420105C27.5212 0.444485 27.5349 0.47755 27.5349 0.512029V0.532029C27.5349 0.566507 27.5212 0.599573 27.4968 0.623952C27.4724 0.648332 27.4394 0.662029 27.4049 0.662029H24.3458C24.3113 0.662029 24.2782 0.648332 24.2539 0.623952C24.2295 0.599573 24.2158 0.566507 24.2158 0.532029L24.2163 0.512029ZM22.6449 1.34503C22.6852 1.27798 22.7434 1.22344 22.8129 1.18746C22.8823 1.15149 22.9604 1.13548 23.0385 1.14123C23.1405 1.15067 23.2353 1.19788 23.3044 1.27361C23.3734 1.34933 23.4117 1.44811 23.4117 1.55058C23.4117 1.65305 23.3734 1.75183 23.3044 1.82755C23.2353 1.90327 23.1405 1.95048 23.0385 1.95993C22.9604 1.96559 22.8823 1.9495 22.8128 1.91343C22.7433 1.87736 22.6852 1.82274 22.6449 1.75563C22.6106 1.69255 22.5927 1.62189 22.5927 1.5501C22.5927 1.47831 22.6107 1.40767 22.6451 1.34463L22.6449 1.34503ZM35.8751 4.76693V18.4757V39.6285C35.895 40.1562 35.8581 40.6844 35.7651 41.2041C35.682 41.6192 35.4824 42.002 35.1897 42.3078C34.8992 42.601 34.5296 42.803 34.126 42.8891C33.6161 42.9839 33.0972 43.0212 32.579 43.0004H19.5398C19.3984 43.0004 19.1743 43.0004 19.0315 43.0004C18.7866 42.9993 18.5676 42.9931 18.3544 42.9814C18.082 42.9721 17.8112 42.9349 17.5464 42.8703C17.5321 42.8666 17.5212 42.8582 17.5071 42.8542C17.1331 42.7542 16.794 42.553 16.5271 42.2726C16.2468 41.9654 16.0571 41.5864 15.9792 41.1778C15.8909 40.6599 15.856 40.1342 15.8751 39.6091V6.00043C15.8751 5.48633 15.8751 4.89043 15.8751 4.37683C15.8518 3.82376 15.8942 3.26988 16.0016 2.72683C16.1003 2.29662 16.3267 1.90624 16.651 1.60683C16.8165 1.45755 17.0052 1.33623 17.2098 1.24763C17.4083 1.16333 17.6166 1.10408 17.8298 1.07123C18.0938 1.03073 18.3604 1.00891 18.6276 1.00593C18.8103 1.00133 19.0239 1.00063 19.2266 1.00063H19.3922H19.5413H21.492C21.5471 0.998143 21.6022 1.00099 21.6568 1.00913C21.711 1.01599 21.7616 1.04039 21.8007 1.07863C21.8398 1.11687 21.8653 1.16684 21.8734 1.22093C21.8827 1.27535 21.887 1.33052 21.8863 1.38573C21.8864 1.5096 21.8958 1.63329 21.9147 1.75573C21.9356 1.87684 21.9773 1.99343 22.038 2.10033C22.135 2.26973 22.2749 2.41057 22.4437 2.50863C22.5753 2.58326 22.7205 2.63067 22.8708 2.64803C23.0223 2.66304 23.1746 2.66792 23.3267 2.66263H28.4239C28.576 2.66792 28.7284 2.66304 28.8799 2.64803C29.0301 2.63065 29.1754 2.58324 29.307 2.50863C29.4757 2.41057 29.6155 2.26977 29.7125 2.10043C29.7731 1.99352 29.8148 1.87694 29.8357 1.75583C29.8545 1.6334 29.8641 1.50971 29.8642 1.38583C29.8633 1.33061 29.8677 1.27544 29.8771 1.22103C29.8851 1.16695 29.9107 1.11699 29.9497 1.07876C29.9888 1.04052 30.0393 1.01611 30.0936 1.00923C30.1481 1.00099 30.2034 0.998045 30.2585 1.00043H32.3898H32.7186C33.2171 0.98086 33.7162 1.02454 34.2038 1.13043C34.5938 1.22849 34.9476 1.43589 35.2238 1.72823C35.504 2.03548 35.6936 2.41442 35.7715 2.82293C35.8598 3.34132 35.8947 3.86741 35.8755 4.39293C35.8751 4.46043 35.8751 4.70443 35.8751 4.76693Z" fill="#1D1D1F"/>
</svg>
