<svg width="59" height="44" viewBox="0 0 59 44" fill="none" xmlns="http://www.w3.org/2000/svg">
<path d="M50.0674 41.5001C50.0674 41.7236 50.0011 41.9421 49.877 42.1279C49.7528 42.3137 49.5763 42.4586 49.3698 42.5441C49.1634 42.6296 48.9362 42.652 48.717 42.6084C48.4978 42.5648 48.2964 42.4572 48.1384 42.2991C47.9803 42.1411 47.8727 41.9397 47.8291 41.7205C47.7855 41.5013 47.8079 41.2741 47.8934 41.0677C47.979 40.8612 48.1238 40.6847 48.3096 40.5605C48.4954 40.4364 48.7139 40.3701 48.9374 40.3701C49.237 40.3704 49.5242 40.4896 49.7361 40.7014C49.9479 40.9133 50.0671 41.2005 50.0674 41.5001ZM58.4374 7.00009V41.0001C58.4374 41.7957 58.1213 42.5588 57.5587 43.1214C56.9961 43.684 56.2331 44.0001 55.4374 44.0001H42.4374C41.6915 43.9983 40.9734 43.7168 40.4249 43.2113C40.5834 43.0067 40.723 42.7882 40.8422 42.5585C41.0422 42.1624 41.1854 41.74 41.2675 41.3039C41.3712 40.689 41.416 40.0655 41.4013 39.4421V39.0001H57.4374V9.00009H41.4015V5.6049V5.30909C41.4002 4.9374 41.3871 4.5717 41.3592 4.2082C41.7026 4.07261 42.0682 4.00204 42.4374 4.00009H55.4374C56.2331 4.00009 56.9961 4.31616 57.5587 4.87877C58.1213 5.44138 58.4374 6.20445 58.4374 7.00009ZM45.3124 6.50009C45.3124 6.42593 45.2904 6.35342 45.2492 6.29176C45.208 6.23009 45.1494 6.18202 45.0809 6.15364C45.0124 6.12526 44.937 6.11783 44.8643 6.1323C44.7915 6.14677 44.7247 6.18249 44.6722 6.23493C44.6198 6.28737 44.5841 6.35419 44.5696 6.42694C44.5551 6.49968 44.5626 6.57508 44.591 6.6436C44.6193 6.71212 44.6674 6.77069 44.7291 6.8119C44.7907 6.8531 44.8632 6.87509 44.9374 6.87509C45.0369 6.87507 45.1322 6.83555 45.2025 6.76523C45.2729 6.69491 45.3124 6.59954 45.3124 6.50009ZM51.4374 6.50009C51.4372 6.43385 51.4108 6.37037 51.364 6.32352C51.3171 6.27668 51.2537 6.25028 51.1874 6.25009H46.6874C46.6211 6.25009 46.5575 6.27643 46.5106 6.32332C46.4637 6.3702 46.4374 6.43379 46.4374 6.50009C46.4374 6.5664 46.4637 6.62999 46.5106 6.67687C46.5575 6.72376 46.6211 6.75009 46.6874 6.75009H51.1874C51.2537 6.74991 51.3171 6.72351 51.364 6.67667C51.4108 6.62982 51.4372 6.56634 51.4374 6.50009ZM50.6874 41.5001C50.6874 41.154 50.5848 40.8156 50.3925 40.5278C50.2002 40.2401 49.9269 40.0158 49.6071 39.8833C49.2873 39.7509 48.9355 39.7162 48.596 39.7837C48.2565 39.8512 47.9447 40.0179 47.7 40.2627C47.4552 40.5074 47.2886 40.8192 47.221 41.1587C47.1535 41.4982 47.1882 41.85 47.3206 42.1698C47.4531 42.4896 47.6774 42.7629 47.9652 42.9552C48.2529 43.1475 48.5913 43.2501 48.9374 43.2501C49.4015 43.2501 49.8467 43.0657 50.1748 42.7375C50.503 42.4093 50.6874 41.9642 50.6874 41.5001ZM6.36881 7.25489C6.10268 7.42379 5.80295 7.53269 5.49047 7.57401C5.17799 7.61533 4.86026 7.58808 4.55938 7.49415C4.2585 7.40022 3.98169 7.24188 3.74821 7.03013C3.51473 6.81837 3.33019 6.5583 3.20741 6.268C3.09136 5.96092 3.04991 5.63068 3.08648 5.30445C3.12304 4.97822 3.23658 4.66535 3.41774 4.39159C3.59889 4.11784 3.84249 3.89103 4.12846 3.72985C4.41443 3.56866 4.73461 3.47772 5.06261 3.4645C5.52252 3.42247 5.98323 3.53589 6.37107 3.78663C6.7589 4.03736 7.05145 4.41091 7.20191 4.84754C7.35238 5.28416 7.35207 5.75864 7.20104 6.19507C7.05 6.6315 6.75697 7.00467 6.36881 7.25489ZM10.0463 6.04009C9.70043 6.05243 9.36314 6.15114 9.06519 6.32724C8.76724 6.50334 8.51811 6.75122 8.34051 7.04828C8.16291 7.34533 8.06249 7.68212 8.04842 8.02793C8.03434 8.37375 8.10705 8.71758 8.25991 9.02809C8.40343 9.2926 8.60007 9.5246 8.83749 9.70952C9.07491 9.89443 9.34798 10.0283 9.63958 10.1027C9.93118 10.1771 10.235 10.1904 10.532 10.1418C10.829 10.0932 11.1127 9.98374 11.3654 9.82029C11.7493 9.56733 12.0377 9.19347 12.185 8.75799C12.3323 8.32252 12.3301 7.85033 12.1786 7.41628C12.0272 6.98223 11.7351 6.61115 11.3489 6.36186C10.9626 6.11257 10.5042 5.99933 10.0463 6.04009ZM5.14961 8.62009C4.81292 8.6193 4.4811 8.70059 4.18291 8.85695C3.88473 9.0133 3.62915 9.24 3.43833 9.5174C3.24751 9.7948 3.1272 10.1145 3.08781 10.4489C3.04843 10.7833 3.09116 11.1223 3.21231 11.4364C3.36827 11.7969 3.61958 12.1081 3.9392 12.3364C4.25883 12.5647 4.63467 12.7016 5.02628 12.7322C5.41788 12.7629 5.81043 12.6861 6.16168 12.5103C6.51293 12.3345 6.80958 12.0662 7.01971 11.7343C7.20894 11.4139 7.30812 11.0483 7.30677 10.6762C7.30541 10.3041 7.20357 9.93932 7.01201 9.62031C6.82045 9.30131 6.54627 9.03997 6.21845 8.86391C5.89063 8.68786 5.52135 8.60362 5.14961 8.62009ZM19.0043 42.5589C19.1848 42.9068 19.4122 43.2283 19.6801 43.5143C19.3581 43.6658 19.0185 43.7767 18.6691 43.8443C18.2711 43.9162 17.8679 43.9559 17.4635 43.9631C17.0922 43.9746 16.5998 43.9731 16.2091 43.9731H6.14911H5.73311C5.62251 43.9731 5.51251 43.9727 5.40311 43.9719C4.82888 43.982 4.25494 43.9394 3.68851 43.8445C3.30119 43.7724 2.92581 43.6466 2.57321 43.4708C1.87519 43.1202 1.30709 42.5562 0.951409 41.8608C0.774329 41.5114 0.647572 41.1387 0.574909 40.7538C0.473156 40.1375 0.42983 39.5129 0.445509 38.8884C0.445509 38.7802 0.445509 38.6712 0.445509 38.5615V6.1885C0.445509 6.07863 0.445509 5.96963 0.445509 5.86149C0.42997 5.23696 0.473429 4.61236 0.575309 3.996C0.648004 3.61113 0.774758 3.23847 0.951809 2.88909C1.30744 2.19362 1.87555 1.62964 2.57361 1.27909C2.9262 1.10328 3.30158 0.977471 3.68891 0.905295C4.08699 0.833354 4.49024 0.793659 4.89471 0.786595C5.26601 0.775095 5.75841 0.776595 6.14911 0.776595H16.2091H16.6251C16.7351 0.776595 16.8451 0.776595 16.9545 0.777795C17.5287 0.767656 18.1027 0.810302 18.6691 0.905195C19.0185 0.972791 19.3581 1.08364 19.6801 1.23519C19.4122 1.52134 19.1848 1.84291 19.0043 2.19089C18.8042 2.58702 18.661 3.00937 18.5788 3.4455C18.4752 4.06051 18.4305 4.68399 18.4452 5.30749V5.6042V39.1442V39.4392C18.4304 40.0632 18.4751 40.6872 18.5788 41.3027C18.6608 41.7394 18.804 42.1623 19.0043 42.5589ZM12.8243 6.52819C12.8243 6.24889 12.8243 6.0547 12.8238 5.8921C12.8238 5.7321 12.8218 5.5999 12.8177 5.4785C12.8122 5.24015 12.7854 5.00278 12.7377 4.7692C12.6864 4.52544 12.6018 4.2899 12.4863 4.0692C12.2457 3.61315 11.8728 3.24049 11.4166 3.00009C11.1959 2.88457 10.9604 2.79998 10.7166 2.74869C10.4831 2.70084 10.2457 2.67406 10.0074 2.66869C9.88611 2.66449 9.75351 2.66299 9.59361 2.6624C9.43121 2.6618 9.23691 2.6624 8.95761 2.6624H6.21841C5.93911 2.6624 5.74481 2.6624 5.58221 2.6624C5.42221 2.66299 5.28991 2.66449 5.16861 2.66869C4.93002 2.67404 4.6924 2.70081 4.45861 2.74869C4.21521 2.80002 3.98003 2.88462 3.75971 3.00009C3.30351 3.24077 2.93073 3.61376 2.69031 4.07009C2.57482 4.2908 2.49023 4.52634 2.43891 4.7701C2.39105 5.00365 2.36427 5.24104 2.35891 5.47939C2.35451 5.60079 2.35331 5.7332 2.35261 5.893V6.5291V9.67509V10.3111C2.35331 10.4711 2.35451 10.6033 2.35891 10.7248C2.36428 10.9631 2.39105 11.2005 2.43891 11.434C2.49021 11.6778 2.5748 11.9133 2.69031 12.134C2.93079 12.5901 3.30357 12.9629 3.75971 13.2033C3.98017 13.3189 4.21552 13.4035 4.45911 13.4547C4.6929 13.5026 4.93052 13.5293 5.16911 13.5347C5.29041 13.5389 5.42281 13.5403 5.58271 13.541C5.74531 13.5416 5.93961 13.541 6.21891 13.541H8.95891H9.59491C9.75491 13.5403 9.88741 13.5389 10.0087 13.5347C10.247 13.5293 10.4844 13.5025 10.7179 13.4547C10.9617 13.4035 11.1972 13.3189 11.4179 13.2033C11.874 12.9629 12.2468 12.5901 12.4873 12.134C12.6028 11.9133 12.6874 11.6778 12.7387 11.434C12.7864 11.2004 12.8132 10.9631 12.8187 10.7248C12.8228 10.6033 12.8243 10.471 12.8248 10.3111C12.8253 10.1486 12.8253 9.95429 12.8253 9.67509L12.8243 6.52819ZM20.1666 42.5482C20.0648 42.4078 19.9743 42.2597 19.8958 42.1051C19.8168 41.9496 19.7495 41.7885 19.6944 41.6231C19.7495 41.7886 19.8168 41.9497 19.8958 42.1052C19.9742 42.2597 20.0646 42.4078 20.1662 42.5481L20.1666 42.5482ZM24.3019 1.75009H24.4193H24.5285H35.328H35.6967L35.9848 1.75109C36.434 1.7425 36.8831 1.77453 37.3266 1.8468C37.5807 1.89376 37.8269 1.97623 38.058 2.09179C38.4924 2.31156 38.8451 2.66439 39.0648 3.09879C39.1804 3.32974 39.2628 3.57583 39.3097 3.8298C39.3874 4.32135 39.4197 4.81902 39.4062 5.31649V5.60469V38.9201V39.4348C39.4197 39.9317 39.3874 40.4287 39.3097 40.9197C39.2628 41.1738 39.1803 41.4201 39.0646 41.6512C38.8448 42.0857 38.4919 42.4386 38.0574 42.6583C37.8265 42.7738 37.5805 42.8562 37.3266 42.9031C37.0252 42.9575 36.7198 42.9871 36.4136 42.9916C36.1606 42.9995 35.8425 43.0001 35.5536 43.0001H35.4374H35.3282H24.5285H24.1585L23.8714 42.9991C23.422 43.0077 22.9727 42.9757 22.5291 42.9033C22.2753 42.8564 22.0293 42.774 21.7984 42.6585C21.3639 42.4388 21.011 42.0859 20.7913 41.6514C20.6758 41.4204 20.5934 41.1744 20.5465 40.9204C20.4686 40.43 20.4363 39.9335 20.45 39.4372V39.1455V5.60549V5.3155C20.4363 4.81843 20.4687 4.32117 20.5468 3.83009C20.5937 3.57598 20.6761 3.32973 20.7916 3.0986C21.0115 2.66452 21.3641 2.31192 21.7982 2.09209C22.0293 1.97657 22.2754 1.8941 22.5294 1.8471C22.8308 1.79271 23.1362 1.76311 23.4425 1.75859C23.6955 1.75069 24.0136 1.75009 24.3019 1.75009ZM24.3019 0.750095C24.0031 0.750095 23.6735 0.750895 23.4119 0.759095C23.0514 0.765414 22.6921 0.801032 22.3374 0.865595C21.9923 0.930437 21.658 1.0433 21.3442 1.20089C20.7218 1.51671 20.2161 2.02256 19.9005 2.6451C19.743 2.95886 19.6301 3.29313 19.5653 3.63819C19.4747 4.1912 19.4362 4.75149 19.4503 5.31169C19.4499 5.40869 19.4499 5.50643 19.4503 5.6049V39.1449V39.4382C19.4362 39.9984 19.4747 40.5586 19.5653 41.1116C19.6301 41.4567 19.7429 41.7909 19.9005 42.1047C20.2162 42.7273 20.722 43.2332 21.3446 43.5489C21.6584 43.7065 21.9927 43.8194 22.3378 43.8842C22.8421 43.9693 23.3532 44.0076 23.8646 43.9985C23.9618 43.9991 24.0596 43.9994 24.1579 43.9995H24.5285H35.328H35.5543C35.8532 43.9995 36.183 43.9987 36.445 43.9905C36.8052 43.9841 37.1643 43.9485 37.5187 43.884C37.8637 43.8193 38.198 43.7064 38.5116 43.5487C39.1344 43.2331 39.6403 42.7272 39.956 42.1045C40.1136 41.7907 40.2264 41.4565 40.2912 41.1114C40.3817 40.5584 40.4202 39.9982 40.4062 39.438V38.9208V5.6049C40.4062 5.50636 40.4062 5.40863 40.4062 5.31169C40.4202 4.75149 40.3817 4.19121 40.2912 3.63819C40.2264 3.29313 40.1136 2.95886 39.956 2.6451C39.6403 2.02239 39.1344 1.51651 38.5116 1.20089C38.1979 1.04325 37.8637 0.930387 37.5187 0.865595C37.0144 0.780522 36.5032 0.742259 35.9918 0.751295C35.8947 0.750695 35.7969 0.750361 35.6986 0.750295H35.328H24.5285H24.3019V0.750095ZM32.0312 2.2601H27.8585C27.6178 2.26261 27.3878 2.35999 27.2185 2.53108C27.0492 2.70217 26.9543 2.93315 26.9543 3.17384C26.9543 3.41454 27.0492 3.64552 27.2185 3.81661C27.3878 3.9877 27.6178 4.08508 27.8585 4.08759H32.0312C32.152 4.08886 32.2719 4.06616 32.3838 4.0208C32.4958 3.97545 32.5977 3.90834 32.6835 3.82337C32.7694 3.73839 32.8376 3.63724 32.8841 3.52575C32.9306 3.41426 32.9546 3.29465 32.9546 3.17384C32.9546 3.05304 32.9306 2.93343 32.8841 2.82194C32.8376 2.71045 32.7694 2.6093 32.6835 2.52432C32.5977 2.43935 32.4958 2.37224 32.3838 2.32689C32.2719 2.28153 32.152 2.25883 32.0312 2.2601ZM32.0834 3.6238C31.9944 3.6238 31.9074 3.5974 31.8334 3.54796C31.7594 3.49851 31.7017 3.42823 31.6677 3.346C31.6336 3.26378 31.6247 3.1733 31.6421 3.086C31.6594 2.99871 31.7023 2.91853 31.7652 2.8556C31.8281 2.79266 31.9083 2.7498 31.9956 2.73244C32.0829 2.71508 32.1734 2.72399 32.2556 2.75805C32.3378 2.79211 32.4081 2.84979 32.4576 2.92379C32.507 2.99779 32.5334 3.08479 32.5334 3.1738C32.5334 3.2329 32.5218 3.29143 32.4992 3.34603C32.4766 3.40064 32.4434 3.45026 32.4016 3.49206C32.3599 3.53385 32.3102 3.56701 32.2556 3.58963C32.201 3.61225 32.1425 3.6239 32.0834 3.6239V3.6238Z" fill="#1D1D1F"/>
</svg>
